# xmcd
#
# Track frame offsets:
#	150
#	22350
#	39720
#	60089
#	79504
#	100757
#	120584
#	136816
#	158664
#	178033
#	196262
#	213813
#	232440
#	249756
#	269874
#	288905
#	309953
#	327386
#
# Disc length: 4591 seconds
#
# Revision: 1
# Processed by: cddbd v1.5.2PL0 Copyright (c) Steve Scherf et al.
# Submitted via: dBpowerAMP V4.0
#
DISCID=f811ed12
DTITLE=Various Artist - Pure Swing CD1
DYEAR=2010
DGENRE=R&B/Soul
TTITLE0=Bobby Brown - Don't Be Cruel
TTITLE1=Blackstreet - U Blow My Mind
TTITLE2=Mary J. Blige - Real Love
TTITLE3=Soul For Real - Every Little Thing I Do
TTITLE4=Jade - Dont Walk Away
TTITLE5=Horace Brown - Out For The Money
TTITLE6=Salt 'N Pepa Feat. En Vogue - Whatta Man
TTITLE7=Guy - I Like
TTITLE8=Heavy D and The Boyz Feat. Aaron Hall - Now That We Found Love
TTITLE9=Whitehead Bros. - Forget I Was A "G"
TTITLE10=Montell Jordan - This Is How We Do It
TTITLE11=Color Me Bad - I Wanna Sex You Up
TTITLE12=Shanice - I Love Your Smile
TTITLE13=Silk - Freak Me
TTITLE14=Adina Howard - Freak Like Me
TTITLE15=Ralph Tresvant - Sensitivity
TTITLE16=Goodfellaz - Sugar Honey Ice Tea
TTITLE17=Sounds Of Blackness - Optimistic
EXTD=
EXTT0=
EXTT1=
EXTT2=
EXTT3=
EXTT4=
EXTT5=
EXTT6=
EXTT7=
EXTT8=
EXTT9=
EXTT10=
EXTT11=
EXTT12=
EXTT13=
EXTT14=
EXTT15=
EXTT16=
EXTT17=
PLAYORDER=
